<?xml version="1.0" standalone="no"?>
<!DOCTYPE svg PUBLIC "-//W3C//DTD SVG 20010904//EN"
 "http://www.w3.org/TR/2001/REC-SVG-20010904/DTD/svg10.dtd">
<svg version="1.0" xmlns="http://www.w3.org/2000/svg"
 width="300.000000pt" height="129.000000pt" viewBox="0 0 300.000000 129.000000"
 preserveAspectRatio="xMidYMid meet">
<metadata>
Created by potrace 1.10, written by Peter Selinger 2001-2011
</metadata>
<g transform="translate(0.000000,129.000000) scale(0.100000,-0.100000)"
fill="#000000" stroke="none">
<path d="M1545 1000 c-22 -4 -96 -15 -164 -25 -109 -17 -130 -23 -180 -55 -31
-20 -74 -52 -95 -71 -25 -21 -47 -33 -62 -31 -27 4 -87 -25 -79 -38 3 -5 -3
-11 -12 -13 -10 -3 154 -5 365 -6 249 -1 382 2 382 9 0 11 -26 15 -86 11 -23
-1 -45 2 -49 8 -4 7 7 11 29 11 26 0 36 4 36 15 0 13 -4 14 -21 5 -29 -16 -49
-5 -49 27 0 18 -11 38 -29 56 -28 26 -59 38 -46 17 3 -5 0 -10 -8 -10 -17 0
-67 -55 -67 -74 0 -16 -28 -41 -36 -33 -4 3 4 26 16 51 13 27 19 54 15 66 -6
18 -2 20 47 22 62 2 72 3 158 12 82 8 222 -5 228 -21 2 -7 -3 -13 -11 -13 -8
0 -25 -9 -38 -21 l-24 -20 38 5 c27 3 37 1 37 -9 0 -21 -17 -27 -40 -15 -24
13 -26 3 -3 -22 24 -27 6 -51 -43 -59 -38 -6 -38 -6 12 -8 l50 -1 33 79 c20
49 30 87 26 100 -5 17 0 22 27 29 18 5 35 6 38 3 3 -3 28 -6 55 -6 28 0 70 -3
95 -7 l45 -7 -42 14 c-91 29 -440 45 -548 25z m-176 -117 c-13 -21 -33 -55
-46 -75 l-23 -38 -88 0 -87 1 40 36 c75 67 157 111 208 113 17 0 17 -3 -4 -37z
m153 -42 c-6 -53 -13 -61 -64 -61 l-38 0 26 53 c21 43 30 52 53 53 28 1 28 0
23 -45z"/>
<path d="M1952 947 c-24 -11 -66 -85 -100 -175 l-19 -49 27 10 c23 9 32 7 55
-12 l28 -21 22 20 c12 11 31 20 43 20 11 0 45 6 75 14 29 8 92 17 140 21 47 4
94 13 104 20 17 13 17 14 -1 34 -11 12 -15 21 -9 21 12 0 52 -42 52 -55 0 -5
16 -13 36 -16 19 -3 35 -5 35 -4 0 2 -35 26 -77 56 -43 29 -72 45 -64 36 7 -9
9 -17 3 -17 -11 0 -39 31 -34 37 2 3 0 8 -4 11 -4 4 -4 1 1 -7 5 -9 3 -12 -6
-9 -8 3 -13 10 -12 16 2 6 -7 16 -18 23 -17 9 -20 8 -14 -2 6 -9 3 -10 -11 -4
-103 44 -201 57 -252 32z m117 -44 c5 -21 14 -56 19 -78 5 -22 10 -31 11 -20
1 21 -10 71 -24 115 -7 22 -6 23 9 11 9 -7 16 -20 16 -27 0 -8 11 -14 26 -14
14 0 34 -5 44 -10 16 -9 18 -7 15 10 -4 20 -4 20 35 -1 32 -18 37 -25 28 -37
-16 -19 -107 -64 -117 -57 -5 2 -12 -2 -15 -11 -4 -12 -13 -14 -29 -10 -44 14
-161 6 -174 -11 -14 -18 -43 -10 -43 12 0 9 5 13 11 10 6 -4 22 4 36 16 20 19
36 24 80 24 74 0 88 19 55 75 -18 32 -20 40 -8 40 9 0 19 -15 25 -37z m-53 -6
c1 -1 4 -17 7 -34 9 -44 -17 -45 -29 -1 -11 37 -34 50 -34 19 0 -12 -6 -21
-15 -21 -15 0 -21 31 -8 44 6 6 75 -1 79 -7z"/>
<path d="M1635 870 c10 -33 32 -64 37 -53 3 4 -6 24 -20 43 -20 29 -23 31 -17
10z"/>
<path d="M2378 759 c-76 -9 -135 -25 -126 -34 2 -3 36 2 74 10 38 8 87 14 109
14 l40 -1 -38 -8 c-56 -11 -57 -20 -1 -14 46 6 50 4 63 -20 8 -14 20 -26 27
-26 7 0 18 -8 23 -17 6 -11 11 -13 11 -5 1 39 -68 116 -98 111 -4 -1 -42 -6
-84 -10z"/>
<path d="M798 748 c-32 -6 -58 -14 -58 -19 0 -5 -7 -5 -17 -2 -11 5 -14 3 -8
-6 6 -10 2 -11 -15 -6 -13 4 -20 3 -17 -2 3 -5 -3 -14 -13 -21 -12 -7 -21 -8
-25 -2 -3 6 -11 10 -17 10 -6 0 -5 -7 3 -17 13 -15 12 -15 -8 -4 -18 9 -29 9
-53 -4 -18 -9 -28 -20 -24 -27 5 -7 2 -9 -9 -5 -9 3 -18 3 -21 -1 -2 -4 6 -9
20 -10 13 -1 24 2 24 7 0 13 29 41 41 41 6 0 1 -12 -10 -26 -12 -15 -21 -34
-21 -42 0 -8 10 0 23 19 18 27 29 33 50 31 15 -2 39 5 54 16 36 24 76 40 160
62 53 14 60 18 33 18 -19 0 -61 -5 -92 -10z"/>
<path d="M1495 716 c-60 -14 -196 -66 -210 -79 -6 -6 -3 -7 10 -4 11 3 42 9
70 13 35 5 44 9 31 14 -17 6 -15 8 10 18 16 7 65 21 109 31 44 11 69 19 55 19
-14 0 -47 -5 -75 -12z"/>
<path d="M1695 705 c-5 -2 -52 -9 -103 -14 -101 -11 -128 -20 -95 -32 13 -5
45 0 83 12 34 10 83 19 108 20 26 0 70 4 97 9 l50 7 -65 1 c-36 0 -69 -1 -75
-3z"/>
<path d="M1228 657 c-53 -15 -102 -19 -306 -20 -239 -1 -304 -12 -107 -17 306
-9 372 -3 480 39 64 26 22 24 -67 -2z"/>
<path d="M1779 663 c-13 -15 -12 -15 9 -4 12 6 27 9 32 6 17 -10 11 -21 -11
-22 -12 -1 -27 -7 -33 -13 -8 -8 -3 -10 19 -4 41 9 51 20 35 39 -16 20 -34 19
-51 -2z"/>
<path d="M1643 659 c-24 -4 -51 -13 -60 -19 -16 -10 -16 -10 2 -6 75 19 118
25 146 19 23 -4 30 -3 25 5 -8 13 -51 14 -113 1z"/>
<path d="M1889 653 c-13 -15 -11 -16 11 -10 14 4 36 7 50 8 l25 1 -25 8 c-38
12 -46 11 -61 -7z"/>
<path d="M2455 624 c-30 -33 -51 -99 -61 -193 -6 -61 -9 -70 -28 -73 -11 -2
-33 6 -48 18 -26 21 -30 21 -96 9 -117 -22 -296 -67 -322 -80 -14 -7 -39 -16
-56 -19 l-30 -7 4 89 c5 110 -14 185 -57 226 -101 97 -211 -54 -211 -290 l0
-74 -46 0 c-27 0 -43 4 -39 10 4 6 -7 10 -26 10 -56 0 -209 42 -209 57 0 7 16
45 35 83 35 70 35 70 95 87 33 9 60 20 60 25 0 5 -8 7 -17 4 -10 -2 -43 -7
-73 -11 -81 -9 -86 -12 -85 -42 0 -23 -5 -29 -30 -34 l-30 -7 33 -1 c32 -1 32
-1 16 -26 -9 -14 -25 -25 -35 -25 -23 0 -25 -13 -4 -30 13 -10 12 -14 -2 -28
-15 -15 -14 -17 8 -22 l24 -6 -25 -7 c-14 -4 -63 -6 -110 -6 -58 1 -75 4 -55
9 17 4 43 5 60 2 28 -5 29 -4 13 11 -22 22 -63 22 -96 -1 -15 -10 -35 -22 -45
-25 -23 -9 -371 11 -401 23 -30 11 -68 100 -70 165 0 27 -5 53 -9 56 -5 3 4
14 20 24 l28 18 -20 -23 -20 -24 37 23 c34 20 43 22 100 13 35 -5 67 -7 72 -5
4 3 5 -4 1 -16 -4 -12 -2 -21 4 -21 10 0 16 21 12 43 -2 12 88 8 112 -5 12 -6
42 -11 67 -10 25 2 51 -2 59 -7 9 -5 23 -3 41 7 25 15 30 14 66 -6 l39 -22
-30 25 c-25 21 -27 27 -15 35 8 5 17 5 20 1 12 -19 110 -57 110 -43 0 9 222 9
236 0 14 -10 62 58 66 92 3 24 1 25 -47 22 -27 -2 -117 -14 -200 -27 -131 -22
-180 -25 -411 -25 l-262 0 -30 25 c-34 28 -67 25 -59 -6 3 -11 1 -19 -4 -19
-5 0 -9 -7 -9 -15 0 -9 -6 -18 -13 -20 -8 -4 -11 -21 -8 -51 2 -32 0 -44 -8
-40 -8 5 -11 -10 -11 -46 0 -38 3 -49 10 -38 19 29 10 -3 -10 -35 l-20 -32 38
-11 c83 -25 276 -36 597 -36 187 0 311 -4 285 -8 -69 -12 -517 -11 -682 2 -81
6 -167 17 -190 25 l-43 15 28 -25 c15 -14 37 -25 48 -25 19 0 31 -4 79 -30 14
-8 36 -19 49 -26 21 -11 17 -13 -45 -19 -38 -3 -96 -9 -129 -14 l-60 -7 65 -7
c36 -4 133 -11 215 -17 605 -42 955 -39 1131 10 101 29 501 88 688 102 115 8
152 14 135 21 -13 5 -43 7 -66 4 -24 -2 -43 -4 -43 -3 0 0 11 23 25 50 14 27
25 58 25 69 0 12 5 35 11 52 17 46 3 156 -25 197 -28 43 -59 47 -91 12z
m-1037 -26 c-3 -8 -29 -14 -71 -16 -61 -3 -86 -14 -55 -24 18 -6 -15 -38 -39
-37 -15 0 -14 2 5 11 12 6 22 15 22 20 0 7 -30 13 -52 9 -47 -7 -108 -8 -102
-1 7 6 197 39 287 49 5 1 7 -5 5 -11z m1094 -1 c-1 -4 4 -14 12 -22 21 -21 49
-165 32 -165 -3 0 -16 4 -30 10 -14 5 -33 7 -43 3 -14 -5 -13 -8 6 -15 12 -4
20 -12 16 -18 -4 -6 1 -7 11 -3 11 4 15 3 10 -5 -3 -6 -2 -13 4 -17 14 -9 12
-41 -3 -57 -7 -7 -14 -17 -15 -23 -2 -15 -31 -18 -48 -4 -8 7 -13 18 -10 26 3
8 1 11 -4 8 -6 -3 -10 0 -10 7 0 7 -3 24 -7 37 -4 16 -2 22 4 18 6 -4 13 2 16
14 5 17 3 18 -10 7 -15 -12 -16 -6 -11 53 3 37 11 75 17 85 7 11 10 12 8 4 -2
-8 2 -27 10 -42 14 -29 6 -37 -15 -16 -9 9 -12 8 -12 -5 0 -9 7 -17 15 -17 8
0 15 -4 15 -10 0 -5 6 -7 14 -4 12 5 11 15 -5 62 -18 54 -19 58 -2 69 16 12
16 13 -1 13 -10 0 -24 -16 -36 -42 -11 -24 -20 -37 -20 -30 0 17 18 51 38 75
15 17 60 21 54 4z m-777 -40 c21 -18 31 -41 46 -112 19 -93 18 -126 -8 -207
-15 -49 -52 -88 -83 -88 -10 0 -28 9 -41 19 -19 16 -22 22 -11 32 6 7 12 24
11 39 0 23 -2 22 -14 -10 -7 -19 -14 -29 -14 -21 -1 8 -4 11 -8 8 -4 -4 4 -21
16 -38 12 -16 21 -35 18 -42 -5 -16 -34 31 -57 94 -22 58 -25 83 -11 75 5 -3
12 20 15 52 8 66 24 123 39 137 7 7 8 4 3 -9 -4 -11 2 -32 14 -53 25 -43 25
-48 -2 -29 -28 20 -38 20 -38 1 0 -8 9 -15 19 -15 11 0 26 -9 34 -20 13 -19
15 -20 21 -3 6 13 9 14 15 4 6 -10 10 -9 14 4 4 9 3 14 -3 10 -6 -4 -19 15
-30 42 -11 26 -25 56 -31 66 -8 15 -6 22 8 32 10 7 15 17 11 21 -5 4 -17 -1
-28 -11 -18 -16 -28 -43 -60 -155 -9 -30 -9 -28 -4 20 10 98 60 180 110 180
13 0 35 -10 49 -23z m-992 -4 c-24 -2 -62 -2 -85 0 -24 2 -5 4 42 4 47 0 66
-2 43 -4z m214 -10 c-20 -2 -52 -2 -70 0 -17 2 0 4 38 4 39 0 53 -2 32 -4z
m1408 -213 c3 -5 12 -7 20 -4 10 4 18 -3 25 -21 16 -41 13 -45 -29 -45 -38 0
-59 19 -45 41 10 17 -84 9 -295 -27 -117 -19 -218 -33 -224 -31 -24 9 103 37
258 57 88 12 176 25 195 30 49 11 88 12 95 0z m-63 -56 c22 -14 1 -19 -72 -16
-94 5 -161 -5 -139 -19 11 -7 10 -9 -6 -10 -25 -3 -29 -3 -95 -17 -61 -13
-109 -21 -158 -28 -30 -4 -33 -2 -30 18 3 20 10 24 69 30 36 3 115 15 175 27
60 11 123 22 139 25 33 4 103 -2 117 -10z m-712 -95 c20 -37 20 -40 3 -47 -18
-7 -349 -9 -496 -3 -42 2 -80 7 -83 12 -5 9 9 13 35 10 7 -2 11 4 9 11 -7 20
-189 23 -244 4 -38 -13 -106 -13 -141 -1 -6 2 -17 14 -23 26 -12 21 -12 22 56
14 41 -4 73 -13 79 -22 9 -12 14 -12 35 5 23 17 47 19 355 20 186 0 341 5 355
10 32 12 36 9 60 -39z"/>
<path d="M2495 538 c8 -35 12 -44 19 -37 7 8 -6 69 -16 69 -6 0 -7 -13 -3 -32z"/>
<path d="M2491 329 c2 -33 3 -37 6 -15 3 22 7 26 13 16 5 -8 11 -12 15 -9 3 3
-4 16 -15 29 l-20 23 1 -44z"/>
<path d="M1690 515 c0 -27 22 -115 29 -115 8 0 29 89 22 96 -3 3 -11 -10 -17
-28 l-12 -33 -1 48 c-1 26 -5 47 -11 47 -5 0 -10 -7 -10 -15z"/>
<path d="M1765 393 c-4 -13 -11 -21 -15 -18 -4 3 -10 -2 -14 -10 -8 -21 8 -19
28 4 10 11 16 26 13 33 -4 8 -8 5 -12 -9z"/>
<path d="M1627 322 c-16 -17 -23 -32 -18 -40 5 -9 13 -2 26 22 11 20 24 32 32
29 7 -3 13 -3 13 0 0 18 -32 11 -53 -11z"/>
<path d="M1690 344 c0 -9 41 -44 51 -44 4 0 10 6 12 13 4 7 6 6 6 -5 1 -9 -4
-18 -11 -20 -7 -3 -4 -7 7 -12 11 -4 16 -4 13 -1 -4 4 -3 18 2 31 8 21 6 24
-28 34 -43 12 -52 12 -52 4z"/>
<path d="M1683 240 c-1 -38 3 -70 8 -70 5 0 9 29 9 65 0 57 2 64 18 59 14 -5
15 -4 2 5 -30 22 -37 12 -37 -59z"/>
<path d="M2172 537 c-1 -38 -6 -66 -10 -63 -5 3 -71 -4 -147 -15 -150 -22
-164 -29 -165 -84 0 -64 0 -64 228 -7 116 29 221 52 235 52 13 0 30 7 38 16
16 19 22 20 -277 -46 -228 -50 -223 -50 -208 7 3 12 12 19 18 17 15 -6 259 33
346 55 36 9 26 14 -22 11 -26 -1 -27 0 -31 62 l-3 63 -2 -68z"/>
<path d="M1861 563 c0 -5 7 -24 14 -43 l13 -35 1 32 c1 19 8 36 19 42 14 9 11
10 -15 11 -18 0 -33 -3 -32 -7z"/>
<path d="M500 481 c0 -6 16 -13 35 -17 19 -3 32 -10 29 -15 -3 -5 0 -9 5 -9 6
0 11 -11 11 -25 0 -13 8 -28 18 -34 16 -9 16 -10 -1 -16 -9 -4 -28 -5 -41 -3
-24 5 -24 5 6 -33 16 -20 40 -40 52 -43 11 -3 98 -8 191 -12 l171 -7 27 32
c15 18 27 36 27 39 0 4 -21 8 -47 10 -27 1 -100 5 -163 9 l-115 7 85 6 85 6
-110 2 c-146 3 -155 6 -155 48 l0 35 148 -3 147 -3 -3 -32 c-2 -28 1 -33 19
-33 18 0 19 2 9 15 -10 12 -9 15 6 16 18 0 18 1 -1 9 -20 9 -20 9 0 9 17 1 15
4 -8 16 -19 10 -74 16 -165 20 -75 3 -165 8 -199 11 -38 3 -63 1 -63 -5z m118
-140 c23 -12 120 -22 211 -22 95 0 116 -5 100 -25 -16 -19 -248 -9 -264 11 -5
8 -23 15 -39 17 -16 2 -31 9 -34 16 -4 14 3 15 26 3z"/>
<path d="M1110 474 c0 -3 5 -14 11 -25 10 -19 12 -19 28 -5 9 8 28 19 41 25
21 8 17 10 -27 10 -29 1 -53 -2 -53 -5z"/>
<path d="M1345 450 c-28 -7 -28 -8 13 -9 23 0 42 -2 42 -3 0 -2 -9 -27 -20
-56 -11 -29 -20 -57 -20 -62 0 -6 20 -20 45 -32 61 -30 69 -20 70 85 l0 82
-50 2 c-27 0 -63 -2 -80 -7z m105 -80 c0 -51 -9 -60 -39 -41 -9 6 -11 18 -7
34 5 23 31 57 42 57 2 0 4 -22 4 -50z"/>
<path d="M710 420 c0 -5 14 -10 31 -10 17 0 28 4 24 10 -3 6 -17 10 -31 10
-13 0 -24 -4 -24 -10z"/>
<path d="M1076 385 c-35 -38 -40 -65 -11 -65 12 0 36 7 51 15 l29 15 -40 1
c-32 0 -36 2 -19 9 12 4 24 15 27 23 3 9 16 17 29 20 17 3 15 5 -10 6 -24 1
-40 -6 -56 -24z"/>
<path d="M1272 365 l-22 -45 45 0 c46 0 63 16 23 22 -19 2 -23 8 -20 36 1 17
1 32 -1 32 -2 0 -13 -20 -25 -45z"/>
</g>
</svg>
